<?xml version="1.0" encoding="UTF-8" standalone="no"?>
<!-- Created with Inkscape (http://www.inkscape.org/) -->

<svg
   width="1024"
   height="1024"
   viewBox="0 0 270.93333 270.93333"
   version="1.1"
   id="svg1"
   inkscape:version="1.4 (e7c3feb100, 2024-10-09)"
   sodipodi:docname="logo.svg"
   inkscape:export-filename="name_logo.png"
   inkscape:export-xdpi="92.973587"
   inkscape:export-ydpi="92.973587"
   xmlns:inkscape="http://www.inkscape.org/namespaces/inkscape"
   xmlns:sodipodi="http://sodipodi.sourceforge.net/DTD/sodipodi-0.dtd"
   xmlns="http://www.w3.org/2000/svg"
   xmlns:svg="http://www.w3.org/2000/svg">
  <sodipodi:namedview
     id="namedview1"
     pagecolor="#0d1117"
     bordercolor="#eeeeee"
     borderopacity="1"
     inkscape:showpageshadow="0"
     inkscape:pageopacity="0"
     inkscape:pagecheckerboard="false"
     inkscape:deskcolor="#0d1117"
     inkscape:document-units="px"
     showborder="false"
     inkscape:zoom="0.14012613"
     inkscape:cx="2515.5907"
     inkscape:cy="-132.02391"
     inkscape:window-width="1920"
     inkscape:window-height="1055"
     inkscape:window-x="1920"
     inkscape:window-y="25"
     inkscape:window-maximized="1"
     inkscape:current-layer="layer1"
     inkscape:export-bgcolor="#ffffff00" />
  <defs
     id="defs1" />
  <g
     inkscape:label="Layer 1"
     inkscape:groupmode="layer"
     id="layer1">
    <path
       style="opacity:1;fill:#5c8cbc;fill-opacity:1;stroke:#5c8cbc;stroke-width:10;stroke-linecap:round;stroke-dasharray:none;stroke-opacity:1"
       d="M 69.575266,639.83235 V 516.93772 H 35.112751 0.65023613 v -4.55165 -4.55165 H 35.112751 69.575266 L 69.591587,382.01373 69.607908,256.19304 290.00002,128.97859 C 415.80235,56.363136 511.42203,1.9437182 512.79177,2.1825453 514.11155,2.4126649 613.03014,59.073952 732.61084,128.09652 c 172.83343,99.76029 217.34918,125.97888 217.07669,127.85239 -0.1933,1.32904 -3.51546,4.10961 -7.61827,6.37628 l -7.27549,4.01946 -208.60291,-120.4427 -208.6029,-120.442698 -0.33785,61.072175 -0.33785,61.072173 h -4.53892 -4.53892 V 86.342269 c 0,-48.499555 -0.33864,-61.121706 -1.62559,-60.591073 -0.89408,0.368642 -95.2596,54.761897 -209.70115,120.873904 L 88.432114,266.82874 88.100259,387.33158 87.768406,507.83442 H 117.686 147.6036 v 4.55165 4.55165 H 117.69274 87.781878 l -0.0013,119.31833 -0.0013,119.31833 -6.367585,3.5763 c -3.502171,1.96697 -7.598065,3.5763 -9.101984,3.5763 h -2.734442 z"
       id="path20"
       transform="scale(0.26458333)" />
    <path
       style="opacity:1;fill:#1b588e;fill-opacity:1;stroke:#1b588e;stroke-width:10;stroke-linecap:round;stroke-dasharray:none;stroke-opacity:1"
       d="m 941.86704,758.79846 -6.17725,-3.87909 V 635.92854 516.93772 h -29.26062 -29.26063 v -4.55165 -4.55165 h 29.26063 29.26062 V 388.28641 c 0,0 -0.52118,-101.23682 -0.52118,-115.96486 18.18837,-10.50107 5.77456,-3.30037 14.5243,-8.35204 0,5.33792 5.50397,243.86491 5.50397,243.86491 h 33.81227 33.81225 v 4.55165 4.55165 h -33.81225 -33.81227 v 122.89463 122.89463 l -3.5763,-0.0247 c -1.96697,-0.0135 -6.35606,-1.7703 -9.75354,-3.90381 z"
       id="path22"
       transform="scale(0.26458333)"
       sodipodi:nodetypes="ccccccccccccccccccccccssc" />
    <path
       style="opacity:1;fill:#194572;fill-opacity:1;stroke:#194572;stroke-width:10;stroke-linecap:round;stroke-dasharray:none;stroke-opacity:1"
       d="M 292.60626,896.65565 C 89.115994,778.99969 78.641978,770.20716 74.550934,767.84519 c 5.344973,-3.08592 13.582771,-7.32209 18.371214,-10.08669 2.609973,1.50686 91.932272,55.09639 206.307352,121.13223 l 207.95468,120.06518 0.33785,-60.89369 0.33785,-60.89368 h 4.53892 4.53892 v 60.47196 c 0,33.25958 0.31862,60.47196 0.70803,60.47196 0.38942,0 93.58451,-53.64501 207.10021,-119.21113 113.5157,-65.56612 192.18355,-114.40309 205.95794,-122.35574 2.71735,1.56887 15.55798,8.93441 19.48789,11.20334 -16.85723,9.73253 -36.38078,23.5404 -217.72512,128.226 -130.70494,75.45271 -217.72175,124.93417 -220.0806,125.14707 -3.13373,0.283 -46.38009,-24.20844 -219.77981,-124.46635 z"
       id="path21"
       transform="scale(0.26458333)"
       sodipodi:nodetypes="sccscccccsssccsss" />
    <path
       sodipodi:type="star"
       style="fill:none;stroke:#fcae1e;stroke-width:5.2834;stroke-linecap:round;stroke-dasharray:none;stroke-opacity:1;opacity:0"
       id="path1"
       inkscape:flatsided="true"
       sodipodi:sides="6"
       sodipodi:cx="126.37168"
       sodipodi:cy="144.14774"
       sodipodi:r1="132.20352"
       sodipodi:r2="114.49161"
       sodipodi:arg1="0"
       sodipodi:arg2="0.52359878"
       inkscape:rounded="0"
       inkscape:randomized="0"
       d="m 258.5752,144.14774 -66.10176,114.4916 H 60.26992 L -5.8318405,144.14774 60.26992,29.656127 l 132.20352,0 z"
       transform="matrix(0,1.0015914,-1.0015394,0,279.8363,8.8938724)" />
    <circle
       style="fill:none;stroke:#fcae1e;stroke-width:26.4583;stroke-linecap:round;stroke-dasharray:none;stroke-opacity:1;opacity:1"
       id="path2"
       cx="135.46666"
       cy="135.46666"
       r="83.38591" />
    <path
       style="fill:none;stroke:#fcae1e;stroke-width:26.4583;stroke-linecap:butt;stroke-linejoin:miter;stroke-dasharray:none;stroke-opacity:1"
       d="M 189.77495,229.55279 155.65864,170.44036"
       id="path4"
       sodipodi:nodetypes="cc" />
    <path
       style="fill:none;stroke:#fcae1e;stroke-width:3.96874995;stroke-linecap:butt;stroke-linejoin:miter;stroke-opacity:1;stroke-dasharray:none"
       d="m 112.07038,135.46666 h 46.83538"
       id="path23" />
    <path
       style="fill:none;stroke:#fcae1e;stroke-width:3.96874995;stroke-linecap:butt;stroke-linejoin:miter;stroke-opacity:1;stroke-dasharray:none"
       d="M 135.46666,158.90576 V 112.07038"
       id="path24" />
    <path
       style="fill:none;stroke:#5c8cbc;stroke-width:3.96874995;stroke-linecap:butt;stroke-linejoin:miter;stroke-opacity:1;stroke-dasharray:none"
       d="M 98.808317,135.46666 H 65.167387"
       id="path25" />
    <path
       style="fill:none;stroke:#1b588e;stroke-width:3.96874995;stroke-linecap:butt;stroke-linejoin:miter;stroke-opacity:1;stroke-dasharray:none"
       d="m 172.12294,135.46666 h 33.56613"
       id="path26" />
    <path
       style="fill:none;stroke:#194572;stroke-width:3.96874995;stroke-linecap:butt;stroke-linejoin:miter;stroke-opacity:1;stroke-dasharray:none"
       d="m 135.46666,172.12294 v 33.25638"
       id="path27" />
    <path
       style="fill:none;stroke:#5c8cbc;stroke-width:3.96874995;stroke-linecap:butt;stroke-linejoin:miter;stroke-opacity:1;stroke-dasharray:none"
       d="M 135.46666,98.823146 V 65.121985"
       id="path28" />
    <text
       xml:space="preserve"
       style="font-size:246.905px;line-height:1.25;font-family:sans-serif;text-align:center;text-anchor:middle;stroke-width:0.264584"
       x="963.81738"
       y="217.25479"
       id="text29"><tspan
         sodipodi:role="line"
         id="tspan29"
         style="font-style:normal;font-variant:normal;font-weight:500;font-stretch:normal;font-size:246.905px;font-family:'Hurmit Nerd Font Mono';-inkscape-font-specification:'Hurmit Nerd Font Mono Medium';fill:#fcae1e;fill-opacity:1;stroke-width:0.264584"
         x="963.81744"
         y="217.25479">uantify&lt;&gt;</tspan></text>
  </g>
</svg>
